<?xml version="1.0" encoding="UTF-8"?>
<svg xmlns="http://www.w3.org/2000/svg" xmlns:xlink="http://www.w3.org/1999/xlink" width="50px" height="50px" viewBox="0 0 50 50" version="1.1">
<g id="surface1">
<path style=" stroke:none;fill-rule:nonzero;fill:rgb(38.039216%,61.960784%,45.098039%);fill-opacity:1;" d="M 25 8.277344 C 31.261719 8.277344 36.355469 13.371094 36.355469 19.632812 C 36.355469 22.367188 35.371094 25.003906 33.578125 27.066406 L 25.140625 35.554688 L 16.402344 27.050781 C 14.484375 24.824219 13.507812 21.984375 13.660156 19.035156 C 13.800781 16.292969 14.953125 13.683594 16.910156 11.6875 C 18.867188 9.695312 21.449219 8.496094 24.1875 8.304688 C 24.460938 8.289062 24.734375 8.277344 25 8.277344 M 25 4.945312 C 24.660156 4.945312 24.3125 4.957031 23.960938 4.984375 C 16.617188 5.484375 10.707031 11.507812 10.332031 18.863281 C 10.128906 22.699219 11.441406 26.460938 13.984375 29.339844 L 24.039062 39.132812 C 24.351562 39.4375 24.753906 39.589844 25.164062 39.589844 C 25.574219 39.589844 25.992188 39.433594 26.304688 39.117188 L 36.015625 29.347656 C 38.386719 26.667969 39.691406 23.214844 39.6875 19.636719 C 39.6875 11.519531 33.113281 4.945312 25 4.945312 Z M 25 4.945312 "/>
<path style=" stroke:none;fill-rule:nonzero;fill:rgb(39.215686%,92.941176%,67.45098%);fill-opacity:1;" d="M 17.621094 25.902344 C 16.011719 24.019531 15.191406 21.589844 15.324219 19.117188 C 15.570312 14.316406 19.515625 10.296875 24.304688 9.964844 C 24.535156 9.949219 24.765625 9.941406 24.996094 9.941406 C 30.335938 9.941406 34.683594 14.289062 34.683594 19.628906 C 34.683594 21.941406 33.855469 24.175781 32.351562 25.929688 L 25.125 33.207031 Z M 17.621094 25.902344 "/>
<path style=" stroke:none;fill-rule:nonzero;fill:rgb(38.039216%,61.960784%,45.098039%);fill-opacity:1;" d="M 25 45.054688 C 16.335938 45.054688 7.011719 43 7.011719 38.492188 C 7.011719 36.296875 9.066406 34.578125 13.121094 33.390625 C 14.003906 33.132812 14.929688 33.636719 15.1875 34.519531 C 15.445312 35.402344 14.941406 36.328125 14.058594 36.585938 C 11.371094 37.375 10.488281 38.210938 10.355469 38.492188 C 10.746094 39.417969 15.664062 41.722656 24.996094 41.722656 C 34.328125 41.722656 39.246094 39.417969 39.636719 38.492188 C 39.5 38.222656 38.535156 37.277344 35.425781 36.445312 C 34.535156 36.207031 34.007812 35.292969 34.246094 34.402344 C 34.484375 33.515625 35.398438 32.988281 36.289062 33.226562 C 41.816406 34.707031 42.980469 36.902344 42.980469 38.488281 C 42.988281 43 33.664062 45.054688 25 45.054688 Z M 39.660156 38.523438 L 39.664062 38.523438 Z M 25 22.933594 C 22.242188 22.933594 20 20.691406 20 17.933594 C 20 15.175781 22.242188 12.933594 25 12.933594 C 27.757812 12.933594 30 15.175781 30 17.933594 C 30 20.691406 27.757812 22.933594 25 22.933594 Z M 25 16.265625 C 24.078125 16.265625 23.332031 17.011719 23.332031 17.933594 C 23.332031 18.855469 24.078125 19.601562 25 19.601562 C 25.921875 19.601562 26.667969 18.855469 26.667969 17.933594 C 26.667969 17.011719 25.921875 16.265625 25 16.265625 Z M 25 16.265625 "/>
</g>
</svg>
